<svg xmlns="http://www.w3.org/2000/svg" xmlns:xlink="http://www.w3.org/1999/xlink" xmlns:xodm="http://www.corel.com/coreldraw/odm/2003" xml:space="preserve" version="1.1" style="shape-rendering:geometricPrecision; text-rendering:geometricPrecision; image-rendering:optimizeQuality; fill-rule:evenodd; clip-rule:evenodd" viewBox="0 0 10165.44 2356.03">
 <defs>
  <style type="text/css">
   <![CDATA[
    .fil0 {fill:#202539}
    .fil1 {fill:#D5E5F9}
   ]]>
  </style>
 </defs>
 <g id="Camada_x0020_1">
  <metadata id="CorelCorpID_0Corel-Layer"/>
  <g id="_2317492876160">
   <circle class="fil0" cx="28.17" cy="2327.86" r="28.17"/>
   <circle class="fil0" cx="10137.27" cy="2327.86" r="28.17"/>
   <circle class="fil0" cx="655.82" cy="2327.86" r="28.17"/>
   <circle class="fil0" cx="9509.62" cy="2327.86" r="28.17"/>
   <circle class="fil1" cx="655.82" cy="2114.77" r="28.17"/>
   <circle class="fil0" cx="9509.62" cy="2114.77" r="28.17"/>
   <circle class="fil0" cx="866.48" cy="2327.86" r="28.17"/>
   <circle class="fil0" cx="9298.96" cy="2327.86" r="28.17"/>
   <circle class="fil0" cx="1913.61" cy="2327.86" r="28.17"/>
   <circle class="fil1" cx="8251.83" cy="2327.86" r="28.17"/>
   <circle class="fil0" cx="2328.78" cy="2327.86" r="28.17"/>
   <circle class="fil0" cx="7836.66" cy="2327.86" r="28.17"/>
   <circle class="fil0" cx="1913.61" cy="2114.77" r="28.17"/>
   <circle class="fil0" cx="8251.83" cy="2114.77" r="28.17"/>
   <circle class="fil0" cx="2328.78" cy="2114.77" r="28.17"/>
   <circle class="fil0" cx="7836.66" cy="2114.77" r="28.17"/>
   <circle class="fil1" cx="1913.61" cy="1906.42" r="28.17"/>
   <circle class="fil0" cx="8251.83" cy="1906.42" r="28.17"/>
   <circle class="fil0" cx="1489.86" cy="1906.42" r="28.17"/>
   <circle class="fil0" cx="8675.58" cy="1906.42" r="28.17"/>
   <circle class="fil0" cx="1700.51" cy="1697.14" r="28.17"/>
   <circle class="fil0" cx="8464.93" cy="1697.14" r="28.17"/>
   <circle class="fil0" cx="2327.56" cy="1697.14" r="28.17"/>
   <circle class="fil0" cx="7837.88" cy="1697.14" r="28.17"/>
   <circle class="fil0" cx="2536.22" cy="1697.14" r="28.17"/>
   <circle class="fil0" cx="7629.22" cy="1697.14" r="28.17"/>
   <circle class="fil0" cx="2536.22" cy="1486.19" r="28.17"/>
   <circle class="fil0" cx="7629.22" cy="1486.19" r="28.17"/>
   <circle class="fil0" cx="2536.22" cy="1911.17" r="28.17"/>
   <circle class="fil0" cx="7629.22" cy="1911.17" r="28.17"/>
   <circle class="fil0" cx="1700.51" cy="1278.29" r="28.17"/>
   <circle class="fil0" cx="8464.93" cy="1278.29" r="28.17"/>
   <circle class="fil0" cx="2749.17" cy="1278.29" r="28.17"/>
   <circle class="fil1" cx="7416.27" cy="1278.29" r="28.17"/>
   <circle class="fil1" cx="2749.17" cy="1072.54" r="28.17"/>
   <circle class="fil0" cx="7416.27" cy="1072.54" r="28.17"/>
   <circle class="fil0" cx="2952.47" cy="1278.29" r="28.17"/>
   <circle class="fil0" cx="7212.97" cy="1278.29" r="28.17"/>
   <circle class="fil1" cx="3155.77" cy="1278.29" r="28.17"/>
   <circle class="fil0" cx="7009.67" cy="1278.29" r="28.17"/>
   <circle class="fil0" cx="4052.27" cy="1278.29" r="28.17"/>
   <circle class="fil0" cx="6113.17" cy="1278.29" r="28.17"/>
   <circle class="fil0" cx="4264.14" cy="1278.29" r="28.17"/>
   <circle class="fil0" cx="5901.3" cy="1278.29" r="28.17"/>
   <circle class="fil0" cx="4476.02" cy="1278.29" r="28.17"/>
   <circle class="fil0" cx="5689.42" cy="1278.29" r="28.17"/>
   <circle class="fil0" cx="1489.86" cy="1278.29" r="28.17"/>
   <circle class="fil1" cx="8675.58" cy="1278.29" r="28.17"/>
   <circle class="fil0" cx="1700.51" cy="859.44" r="28.17"/>
   <circle class="fil0" cx="8464.93" cy="859.44" r="28.17"/>
   <circle class="fil0" cx="2534.85" cy="859.44" r="28.17"/>
   <circle class="fil0" cx="7630.59" cy="859.44" r="28.17"/>
   <circle class="fil0" cx="3428.28" cy="859.44" r="28.17"/>
   <circle class="fil1" cx="6737.16" cy="859.44" r="28.17"/>
   <circle class="fil0" cx="2534.85" cy="652.46" r="28.17"/>
   <circle class="fil0" cx="7630.59" cy="652.46" r="28.17"/>
   <circle class="fil0" cx="2954.93" cy="652.46" r="28.17"/>
   <circle class="fil0" cx="7210.51" cy="652.46" r="28.17"/>
   <circle class="fil0" cx="2743.03" cy="235.15" r="28.17"/>
   <circle class="fil0" cx="7422.41" cy="235.15" r="28.17"/>
   <circle class="fil0" cx="2743.03" cy="445.81" r="28.17"/>
   <circle class="fil0" cx="7422.41" cy="445.81" r="28.17"/>
   <circle class="fil0" cx="3165.58" cy="445.81" r="28.17"/>
   <circle class="fil0" cx="6999.86" cy="445.81" r="28.17"/>
   <circle class="fil0" cx="3634.62" cy="445.81" r="28.17"/>
   <circle class="fil0" cx="6530.82" cy="445.81" r="28.17"/>
   <circle class="fil0" cx="4051.05" cy="445.81" r="28.17"/>
   <circle class="fil0" cx="6114.39" cy="445.81" r="28.17"/>
   <circle class="fil1" cx="3634.62" cy="235.15" r="28.17"/>
   <circle class="fil0" cx="6530.82" cy="235.15" r="28.17"/>
   <circle class="fil0" cx="5253.41" cy="28.17" r="28.17"/>
   <circle class="fil1" cx="6141.33" cy="28.17" r="28.17"/>
   <circle class="fil0" cx="6999.86" cy="28.17" r="28.17"/>
   <circle class="fil0" cx="7210.51" cy="28.17" r="28.17"/>
   <circle class="fil0" cx="5253.41" cy="859.44" r="28.17"/>
   <circle class="fil0" cx="3165.58" cy="652.46" r="28.17"/>
   <circle class="fil0" cx="6999.86" cy="652.46" r="28.17"/>
   <circle class="fil0" cx="3428.28" cy="652.46" r="28.17"/>
   <circle class="fil0" cx="6737.16" cy="652.46" r="28.17"/>
   <circle class="fil0" cx="3843.47" cy="652.46" r="28.17"/>
   <circle class="fil0" cx="6321.97" cy="652.46" r="28.17"/>
   <circle class="fil0" cx="4051.05" cy="652.46" r="28.17"/>
   <circle class="fil0" cx="6114.39" cy="652.46" r="28.17"/>
   <circle class="fil0" cx="1700.51" cy="1072.54" r="28.17"/>
   <circle class="fil0" cx="8464.93" cy="1072.54" r="28.17"/>
   <circle class="fil0" cx="2113.23" cy="1072.54" r="28.17"/>
   <circle class="fil0" cx="8052.21" cy="1072.54" r="28.17"/>
   <circle class="fil0" cx="28.17" cy="1906.42" r="28.17"/>
   <circle class="fil0" cx="10137.27" cy="1906.42" r="28.17"/>
  </g>
 </g>
</svg>